<svg width="100%" viewBox="0 0 680 780" role="img" xmlns="http://www.w3.org/2000/svg">
<title>Story Map as an aging chain of intangible stocks</title>
<desc>Six stocks representing the maturation of information from raw ideas through refined stories to working software, with feedback loops via rework, lessons learned, and aim alignment.</desc>
<defs>
<marker id="arrow" viewBox="0 0 10 10" refX="8" refY="5" markerWidth="6" markerHeight="6" orient="auto-start-reverse"><path d="M2 1L8 5L2 9" fill="none" stroke="context-stroke" stroke-width="1.5" stroke-linecap="round" stroke-linejoin="round"/></marker>
</defs>

<text class="ts" x="40" y="28">Six stocks. Information ages left-to-right through valved flows. Dashed lines are feedback.</text>

<g class="c-gray"><rect x="40" y="60" width="150" height="64" rx="8" stroke-width="0.5"/>
<text class="th" x="115" y="84" text-anchor="middle" dominant-baseline="central">Raw ideas</text>
<text class="ts" x="115" y="104" text-anchor="middle" dominant-baseline="central">Blue-sky discovery</text></g>

<g class="c-purple"><rect x="265" y="60" width="150" height="64" rx="8" stroke-width="0.5"/>
<text class="th" x="340" y="84" text-anchor="middle" dominant-baseline="central">Backbone</text>
<text class="ts" x="340" y="104" text-anchor="middle" dominant-baseline="central">Activities and tasks</text></g>

<g class="c-purple"><rect x="490" y="60" width="150" height="64" rx="8" stroke-width="0.5"/>
<text class="th" x="565" y="84" text-anchor="middle" dominant-baseline="central">Shared map</text>
<text class="ts" x="565" y="104" text-anchor="middle" dominant-baseline="central">Validated picture</text></g>

<line x1="190" y1="92" x2="261" y2="92" class="arr" marker-end="url(#arrow)"/>
<circle cx="225" cy="92" r="5" fill="none" stroke="var(--t)" stroke-width="1"/>
<text class="ts" x="225" y="50" text-anchor="middle">frame</text>

<line x1="415" y1="92" x2="486" y2="92" class="arr" marker-end="url(#arrow)"/>
<circle cx="450" cy="92" r="5" fill="none" stroke="var(--t)" stroke-width="1"/>
<text class="ts" x="450" y="50" text-anchor="middle">explore</text>

<g class="c-teal"><rect x="490" y="200" width="150" height="64" rx="8" stroke-width="0.5"/>
<text class="th" x="565" y="224" text-anchor="middle" dominant-baseline="central">Release slices</text>
<text class="ts" x="565" y="244" text-anchor="middle" dominant-baseline="central">MVP, skeleton</text></g>

<line x1="565" y1="124" x2="565" y2="196" class="arr" marker-end="url(#arrow)"/>
<circle cx="565" cy="160" r="5" fill="none" stroke="var(--t)" stroke-width="1"/>
<text class="ts" x="577" y="164">slice</text>

<g class="c-teal"><rect x="265" y="200" width="150" height="64" rx="8" stroke-width="0.5"/>
<text class="th" x="340" y="224" text-anchor="middle" dominant-baseline="central">Refined stories</text>
<text class="ts" x="340" y="244" text-anchor="middle" dominant-baseline="central">ATDD-ready</text></g>

<line x1="490" y1="232" x2="419" y2="232" class="arr" marker-end="url(#arrow)"/>
<circle cx="455" cy="232" r="5" fill="none" stroke="var(--t)" stroke-width="1"/>
<text class="ts" x="455" y="195" text-anchor="middle">workshop</text>

<g class="c-green"><rect x="40" y="200" width="150" height="64" rx="8" stroke-width="0.5"/>
<text class="th" x="115" y="224" text-anchor="middle" dominant-baseline="central">Working software</text>
<text class="ts" x="115" y="244" text-anchor="middle" dominant-baseline="central">Verified output</text></g>

<line x1="265" y1="232" x2="194" y2="232" class="arr" marker-end="url(#arrow)"/>
<circle cx="230" cy="232" r="5" fill="none" stroke="var(--t)" stroke-width="1"/>
<text class="ts" x="230" y="195" text-anchor="middle">build and verify</text>

<g class="c-amber"><rect x="265" y="340" width="150" height="64" rx="8" stroke-width="0.5"/>
<text class="th" x="340" y="364" text-anchor="middle" dominant-baseline="central">Rework register</text>
<text class="ts" x="340" y="384" text-anchor="middle" dominant-baseline="central">Defects and drift</text></g>

<line x1="115" y1="264" x2="285" y2="336" class="arr" marker-end="url(#arrow)"/>
<text class="ts" x="160" y="305">failures</text>

<path d="M 340 340 Q 340 290 340 268" fill="none" stroke="var(--t)" stroke-width="0.5" stroke-dasharray="4 3" marker-end="url(#arrow)"/>
<text class="ts" x="350" y="310">re-refine</text>

<g class="c-coral"><rect x="490" y="340" width="150" height="64" rx="8" stroke-width="0.5"/>
<text class="th" x="565" y="364" text-anchor="middle" dominant-baseline="central">PDSA agent</text>
<text class="ts" x="565" y="384" text-anchor="middle" dominant-baseline="central">Count ≥ 3 triggers</text></g>

<line x1="415" y1="372" x2="486" y2="372" class="arr" marker-end="url(#arrow)"/>
<text class="ts" x="450" y="360" text-anchor="middle">recurrence</text>

<path d="M 565 340 Q 565 200 565 134" fill="none" stroke="var(--t)" stroke-width="0.5" stroke-dasharray="4 3" marker-end="url(#arrow)"/>
<text class="ts" x="577" y="290">new map rules</text>

<g class="c-blue"><rect x="40" y="460" width="180" height="60" rx="8" stroke-width="0.5"/>
<text class="th" x="130" y="482" text-anchor="middle" dominant-baseline="central">Ubiquitous glossary</text>
<text class="ts" x="130" y="500" text-anchor="middle" dominant-baseline="central">Shared language</text></g>

<g class="c-blue"><rect x="250" y="460" width="180" height="60" rx="8" stroke-width="0.5"/>
<text class="th" x="340" y="482" text-anchor="middle" dominant-baseline="central">Process capability</text>
<text class="ts" x="340" y="500" text-anchor="middle" dominant-baseline="central">What we can promise</text></g>

<g class="c-blue"><rect x="460" y="460" width="180" height="60" rx="8" stroke-width="0.5"/>
<text class="th" x="550" y="482" text-anchor="middle" dominant-baseline="central">Lessons learned</text>
<text class="ts" x="550" y="500" text-anchor="middle" dominant-baseline="central">Pattern library</text></g>

<line x1="340" y1="404" x2="200" y2="456" class="arr" marker-end="url(#arrow)" opacity="0.4"/>
<line x1="340" y1="404" x2="340" y2="456" class="arr" marker-end="url(#arrow)" opacity="0.4"/>
<line x1="340" y1="404" x2="480" y2="456" class="arr" marker-end="url(#arrow)" opacity="0.4"/>
<text class="ts" x="405" y="430">accumulate into</text>

<g class="c-gray"><rect x="240" y="580" width="200" height="50" rx="8" stroke-width="0.5"/>
<text class="th" x="340" y="598" text-anchor="middle" dominant-baseline="central">Detail quality</text>
<text class="ts" x="340" y="616" text-anchor="middle" dominant-baseline="central">Constrains future maps</text></g>

<path d="M 130 520 Q 130 555 240 590" fill="none" stroke="var(--t)" stroke-width="0.5" stroke-dasharray="4 3" marker-end="url(#arrow)"/>
<path d="M 340 520 Q 340 550 340 576" fill="none" stroke="var(--t)" stroke-width="0.5" stroke-dasharray="4 3" marker-end="url(#arrow)"/>
<path d="M 550 520 Q 550 555 440 590" fill="none" stroke="var(--t)" stroke-width="0.5" stroke-dasharray="4 3" marker-end="url(#arrow)"/>

<path d="M 340 580 Q 340 460 340 264" fill="none" stroke="#0F6E56" stroke-width="0.5" stroke-dasharray="4 3" marker-end="url(#arrow)"/>
<text class="ts" x="350" y="555">B1 balancing</text>

<g class="c-gray"><rect x="240" y="680" width="200" height="50" rx="8" stroke-width="0.5"/>
<text class="th" x="340" y="698" text-anchor="middle" dominant-baseline="central">System aim alignment</text>
<text class="ts" x="340" y="716" text-anchor="middle" dominant-baseline="central">True cost visibility</text></g>

<path d="M 115 264 Q 115 680 240 705" fill="none" stroke="#993C1D" stroke-width="0.5" stroke-dasharray="4 3" marker-end="url(#arrow)"/>
<path d="M 440 705 Q 660 705 660 92 L 644 92" fill="none" stroke="#993C1D" stroke-width="0.5" stroke-dasharray="4 3" marker-end="url(#arrow)"/>
<text class="ts" x="500" y="697">R1 reinforcing</text>

<g><rect x="40" y="745" width="600" height="28" rx="8" fill="none" stroke="var(--color-border-tertiary)" stroke-width="0.5"/>
<text class="ts" x="56" y="763">Valves regulate maturation rate. B1 drains rework via better details. R1 reinforces aim alignment.</text></g>
</svg>